:SAMPLES-PER-SECOND 30
:FULLY-SPECIFIED
:DEGREES
526
root  -32.7683 38.2401 -21.6958 -38.9255 -84.0314 37.7996
RightUpLeg  -23.4512 -18.1769 -15.362
RightLeg  8.1826 -11.5875 4.46494
RightFoot  21.5048 0.0517032 0.316158
RightToes  0.00048216 0.542163 -0.142577
Spine  32.8555 -2.29653 -0.872697
Spine1  12.2367 -3.17681 1.45712
HEad  2.35319 50.5423 -23.7355
LeftShoulder1  8.10511 -12.6412 -43.6855
LeftArm  -24.0098 30.7576 -18.4747
LeftForeArm  13.0116 -27.2011 -5.15955
LeftHand  -0.25398 0.0180481 5.50724
RightShoulder  5.15612 8.86894 35.6971
RightArm  29.6495 -38.3452 29.7915
RightForeArm  -18.4063 24.4373 6.1262
RightHand  -0.311602 -2.80565 -13.3277
LeftUpLeg  -9.08929 1.51886 7.7725
LeftLeg  39.3424 1.78944 1.95288
LeftFoot  -17.0337 -0.48126 -11.5971
LeftToes  1.06243e-005 4.65856e-005 -8.18505e-006
527
root  -31.8729 38.0122 -20.844 -37.6091 -82.8308 35.0126
RightUpLeg  -20.8228 -18.537 -17.8345
RightLeg  4.79834 -12.7661 4.32906
RightFoot  22.4337 -1.29197 4.80938
RightToes  0.00048216 0.542163 -0.142577
Spine  31.7355 -2.44083 -3.31668
Spine1  12.1815 -4.15944 1.74484
HEad  4.73165 53.3808 -21.8851
LeftShoulder1  7.81488 -12.1116 -43.5398
LeftArm  -23.9627 29.7535 -17.8532
LeftForeArm  14.1412 -29.0324 -5.52178
LeftHand  -0.25398 0.0180481 5.50724
RightShoulder  4.84843 8.35507 34.9249
RightArm  22.8014 -40.6539 32.0742
RightForeArm  -16.891 22.6826 5.90263
RightHand  -0.236937 -3.2373 -11.8261
LeftUpLeg  -7.35227 2.89686 6.38841
LeftLeg  37.4845 0.150514 0.485949
LeftFoot  -20.8957 -0.911186 -12.5067
LeftToes  1.06243e-005 4.65856e-005 -8.18505e-006
528
root  -30.8491 37.817 -19.9761 -38.0824 -81.2076 34.4514
RightUpLeg  -18.5809 -19.2171 -20.4993
RightLeg  1.5559 -14.0266 3.99627
RightFoot  19.5987 -2.37577 9.09558
RightToes  0.00048216 0.542163 -0.142577
Spine  30.9379 -2.4163 -5.67179
Spine1  12.0858 -4.80838 1.65858
HEad  5.82357 54.8627 -20.36
LeftShoulder1  7.57924 -11.7682 -43.1555
LeftArm  -23.4884 27.1256 -17.2051
LeftForeArm  16.3965 -31.581 -6.01224
LeftHand  -0.25398 0.0180481 5.50724
RightShoulder  4.63228 7.95397 34.4767
RightArm  14.0956 -41.8927 34.7442
RightForeArm  -12.4648 21.0924 6.01032
RightHand  -0.139376 -4.08421 -10.3482
LeftUpLeg  -8.04193 3.90474 3.71343
LeftLeg  37.9664 -0.109366 0.28931
LeftFoot  -23.3299 -0.868576 -9.55571
LeftToes  1.06243e-005 4.65856e-005 -8.18505e-006
529
root  -29.7754 37.6841 -19.1325 -36.9485 -79.7758 32.7915
RightUpLeg  -16.6153 -19.8019 -22.7359
RightLeg  -1.76012 -17.2284 4.16385
RightFoot  14.5786 -2.53073 11.3704
RightToes  0.00048216 0.542163 -0.142577
Spine  29.9328 -2.21562 -7.17084
Spine1  12.1535 -4.90343 1.42774
HEad  6.568 55.0741 -18.7294
LeftShoulder1  7.50451 -11.7343 -42.8047
LeftArm  -22.5981 23.7427 -16.79
LeftForeArm  18.4296 -35.1734 -6.82569
LeftHand  -0.25398 0.0180481 5.50724
RightShoulder  4.53842 7.704 34.5387
RightArm  6.09215 -41.5963 37.1576
RightForeArm  -6.72932 19.226 6.19593
RightHand  -0.0667339 -4.8875 -9.01529
LeftUpLeg  -10.3162 3.96114 1.05227
LeftLeg  39.8755 0.40838 0.752301
LeftFoot  -23.1861 -0.51102 -6.23516
LeftToes  1.06243e-005 4.65856e-005 -8.18505e-006
530
root  -28.7248 37.672 -18.3429 -35.3678 -79.5146 30.8464
RightUpLeg  -15.2648 -20.5268 -23.7548
RightLeg  -3.45593 -21.9617 5.31723
RightFoot  10.8754 -2.14452 11.2586
RightToes  0.00048216 0.542163 -0.142577
Spine  28.6571 -1.69305 -7.53244
Spine1  12.3374 -4.19682 0.962994
HEad  7.84186 54.6154 -17.0978
LeftShoulder1  7.4395 -11.828 -42.1318
LeftArm  -21.8115 20.9809 -17.8068
LeftForeArm  20.2379 -39.5394 -7.96517
LeftHand  -0.25398 0.0180481 5.50724
RightShoulder  4.61752 7.80138 34.8833
RightArm  0.3929 -39.6612 38.5804
RightForeArm  -0.99612 17.0119 6.48332
RightHand  -0.0406085 -5.24742 -8.37204
LeftUpLeg  -12.2957 4.3209 -0.47684
LeftLeg  41.138 0.477988 0.842156
LeftFoot  -21.794 -0.30715 -4.79955
LeftToes  1.06243e-005 4.65856e-005 -8.18505e-006
531
root  -27.7022 37.8514 -17.6042 -35.5915 -80.8107 30.6283
RightUpLeg  -15.3975 -21.4671 -23.2475
RightLeg  -0.342698 -25.0399 5.73713
RightFoot  9.34935 -1.79229 10.1556
RightToes  0.00048216 0.542163 -0.142577
Spine  27.3987 -0.900176 -6.86214
Spine1  12.4482 -2.74418 -0.057541
HEad  9.18201 54.413 -16.4762
LeftShoulder1  7.24728 -11.807 -41.0208
LeftArm  -21.7274 19.5682 -20.5388
LeftForeArm  22.2178 -43.6682 -9.17088
LeftHand  -0.25398 0.0180481 5.50724
RightShoulder  4.88913 8.318 35.3864
RightArm  -2.04866 -36.4382 38.6241
RightForeArm  3.17317 15.636 6.56275
RightHand  -0.0502641 -5.11775 -8.72556
LeftUpLeg  -13.042 5.94708 -1.08679
LeftLeg  40.5112 0.339957 0.704982
LeftFoot  -20.3414 -0.183592 -3.87548
LeftToes  1.06243e-005 4.65856e-005 -8.18505e-006
532
root  -26.7136 38.1952 -16.9294 -38.8025 -82.9114 33.3923
RightUpLeg  -17.1295 -25.0241 -20.4165
RightLeg  7.33099 -21.4172 3.3205
RightFoot  8.50573 -1.61124 9.52859
RightToes  0.00048216 0.542163 -0.142577
Spine  26.3571 -0.148672 -5.6545
Spine1  12.2695 -1.04349 -1.68583
HEad  10.1623 55.0069 -16.9668
LeftShoulder1  7.06678 -11.7162 -40.1716
LeftArm  -22.1403 19.2347 -23.5688
LeftForeArm  23.5712 -46.4306 -10.0811
LeftHand  -0.25398 0.0180481 5.50724
RightShoulder  5.28016 9.04355 36.0967
RightArm  -1.8324 -32.3648 37.4907
RightForeArm  4.92818 16.1219 6.20497
RightHand  -0.0861825 -4.6746 -9.70626
LeftUpLeg  -12.9253 8.11097 -1.51389
LeftLeg  38.2821 0.704001 0.975535
LeftFoot  -18.4384 -0.0240264 -2.13479
LeftToes  1.06243e-005 4.65856e-005 -8.18505e-006
